<svg xmlns="http://www.w3.org/2000/svg" width="1971" height="950" viewBox="0 0 1971 950" version="1.1"><path d="M 878.895 163.199 C 831.263 252.411, 791.867 325.544, 791.349 325.717 C 790.831 325.890, 729.003 289.644, 653.953 245.172 C 578.904 200.699, 517.376 164.404, 517.224 164.516 C 517.072 164.628, 562.084 239.145, 617.251 330.110 L 717.555 495.500 732.778 495.776 C 744.599 495.990, 748 495.767, 747.999 494.776 C 747.999 494.074, 732.933 456.853, 714.520 412.062 C 696.107 367.272, 681.146 330.520, 681.274 330.393 C 681.401 330.266, 707.092 344.971, 738.364 363.071 C 769.637 381.171, 795.531 395.790, 795.908 395.557 C 796.284 395.325, 834.595 348.314, 881.044 291.088 L 965.496 187.042 967.630 189.271 C 968.804 190.497, 1006.987 237.400, 1052.481 293.500 C 1097.975 349.600, 1135.491 395.596, 1135.849 395.712 C 1136.207 395.829, 1161.925 381.184, 1193 363.168 C 1224.075 345.151, 1249.622 330.684, 1249.771 331.019 C 1249.920 331.354, 1235.213 367.713, 1217.087 411.818 C 1198.962 455.922, 1183.847 492.906, 1183.499 494.004 C 1182.884 495.940, 1183.330 496, 1198.262 496 L 1213.658 496 1296.579 359.270 C 1342.186 284.068, 1387.512 209.309, 1397.305 193.139 C 1413.061 167.120, 1414.729 163.963, 1411.805 165.692 C 1409.987 166.767, 1348.348 203.276, 1274.830 246.823 C 1201.311 290.370, 1140.786 325.997, 1140.330 325.994 C 1139.873 325.991, 1100.800 253.486, 1053.500 164.871 C 1006.200 76.257, 967.050 3.133, 966.500 2.374 C 965.755 1.346, 943.452 42.288, 878.895 163.199 M 832.250 546.749 L 813 547.043 813 663.022 L 813 779 838.250 778.993 C 852.138 778.989, 866.538 778.699, 870.250 778.348 L 877 777.711 877 713.155 C 877 675.454, 877.370 648.995, 877.889 649.550 C 878.378 650.072, 893.553 679.196, 911.612 714.268 L 944.445 778.036 966.945 777.768 L 989.444 777.500 1022.472 713.722 L 1055.500 649.945 1055.757 713.823 L 1056.015 777.702 1065.161 778.351 C 1070.191 778.708, 1084.813 779, 1097.654 779 L 1121 779 1121 663.161 L 1121 547.322 1093.250 546.663 C 1077.987 546.300, 1060.934 546.003, 1055.354 546.002 L 1045.207 546 1006.354 621.481 C 984.984 662.996, 967.275 696.967, 967 696.973 C 966.725 696.979, 948.991 663.012, 927.591 621.492 L 888.682 546 870.091 546.227 C 859.866 546.352, 842.837 546.587, 832.250 546.749 M 1150 663.841 L 1150 779.683 1170.250 780.339 C 1181.388 780.700, 1196.237 780.996, 1203.250 780.997 L 1216 781 1216 734.614 L 1216 688.229 1246.750 687.716 C 1283.744 687.099, 1296.078 685.466, 1312.998 678.941 C 1339.462 668.735, 1352.930 648.444, 1352.983 618.697 C 1353.018 598.854, 1347.475 584.441, 1334.985 571.896 C 1325.849 562.721, 1313.994 556.380, 1298.500 552.381 C 1289.391 550.029, 1285.873 549.725, 1259 548.960 C 1242.775 548.498, 1211.612 548.093, 1189.750 548.060 L 1150 548 1150 663.841 M 653.578 551.401 L 625.657 552.500 571.291 670.879 C 541.389 735.987, 517.073 789.407, 517.255 789.589 C 517.682 790.016, 590.045 786.318, 590.388 785.852 C 590.530 785.658, 597.461 770.200, 605.790 751.500 L 620.934 717.500 664.119 717.500 L 707.303 717.500 720.683 747.481 C 728.041 763.971, 734.414 777.814, 734.844 778.244 C 735.274 778.674, 751.662 778.907, 771.263 778.763 L 806.900 778.500 754.165 664.500 L 701.430 550.500 691.465 550.401 C 685.984 550.346, 668.935 550.796, 653.578 551.401 M 1362 670.850 C 1362 780.792, 1362.094 787.001, 1363.750 787.027 C 1364.713 787.042, 1377.200 787.707, 1391.500 788.505 C 1405.800 789.303, 1419.638 789.966, 1422.250 789.978 L 1427 790 1427 674.168 L 1427 558.336 1404.250 557.126 C 1391.737 556.461, 1377.112 555.643, 1371.750 555.308 L 1362 554.699 1362 670.850 M 475.213 559.892 C 454.190 561.178, 448.736 561.800, 447.978 563 C 447.431 563.865, 447.024 578.541, 447.015 597.689 L 447 630.877 442.750 631.473 C 435.641 632.469, 343.806 642, 341.321 642 L 339 642 339 605.563 L 339 569.126 335.750 569.575 C 333.962 569.822, 319.675 571.157, 304 572.541 C 288.325 573.926, 274.938 575.257, 274.250 575.498 C 273.260 575.846, 273 599.972, 273 691.605 L 273 807.272 277.250 806.725 C 279.587 806.424, 294.438 805.144, 310.250 803.880 L 339 801.583 339 750.291 C 339 702.112, 339.106 699, 340.750 698.993 C 341.712 698.989, 365.861 696.514, 394.413 693.493 C 422.966 690.472, 446.478 688, 446.663 688 C 446.848 688, 447 711.897, 447 741.104 L 447 794.208 454.750 793.604 C 459.012 793.271, 470.600 792.552, 480.500 792.006 C 490.400 791.460, 501.762 790.746, 505.750 790.421 L 513 789.829 513 673.915 L 513 558 507.250 558.142 C 504.087 558.221, 489.671 559.008, 475.213 559.892 M 1551 564.121 C 1502.208 569.728, 1466.187 591.706, 1448.767 626.500 C 1440.329 643.352, 1436.885 659.098, 1436.846 681 C 1436.814 699.292, 1438.686 710.886, 1444.071 725.753 C 1455.237 756.576, 1481.334 780.121, 1516.767 791.339 C 1560.017 805.032, 1613.644 802.275, 1650.500 784.465 C 1663.883 777.998, 1671.487 772.639, 1681.577 762.564 C 1691.727 752.428, 1694.912 748.108, 1700.792 736.500 C 1708.810 720.670, 1711.907 707.597, 1712.701 686.233 C 1714 651.290, 1704.746 624.512, 1683.744 602.438 C 1658.560 575.968, 1621.300 562.709, 1573.289 563.130 C 1565.155 563.201, 1555.125 563.647, 1551 564.121 M 1722.246 696.161 L 1722.500 812.500 1749.500 815.155 C 1764.350 816.616, 1778.931 818.090, 1781.902 818.432 L 1787.304 819.053 1786.583 746.777 C 1786.129 701.259, 1786.213 674.870, 1786.810 675.500 C 1787.331 676.050, 1811.941 710.925, 1841.500 753 C 1871.059 795.075, 1895.526 829.783, 1895.871 830.129 C 1896.217 830.475, 1912.025 832.873, 1931 835.458 C 1949.975 838.044, 1966.514 840.397, 1967.754 840.689 L 1970.008 841.219 1969.754 724.903 L 1969.500 608.587 1941 604.836 C 1925.325 602.772, 1910.967 601.065, 1909.093 601.042 L 1905.686 601 1906.401 672.250 C 1906.862 718.229, 1906.772 743.145, 1906.146 742.500 C 1905.614 741.950, 1881.667 707.300, 1852.933 665.500 C 1824.198 623.700, 1800.605 589.385, 1800.504 589.244 C 1800.403 589.103, 1784.386 587.193, 1764.910 585 C 1745.435 582.807, 1727.811 580.745, 1725.746 580.418 L 1721.992 579.823 1722.246 696.161 M 123.041 585.108 C 39.812 591.085, -8.025 645.401, 2.479 722 C 7.849 761.164, 30.310 791.070, 66.500 807.243 C 88.158 816.921, 110.422 821.127, 140 821.127 C 179.006 821.126, 211.264 811.081, 236.343 791.125 C 247.390 782.334, 261.353 765.886, 259.360 764.011 C 257.968 762.702, 202.901 732.758, 202.599 733.146 C 202.448 733.341, 200.944 735.525, 199.258 738 C 190.942 750.206, 179.805 757.611, 162.896 762.178 C 151.131 765.356, 127.405 765.341, 115.500 762.147 C 96.260 756.987, 82.032 746.237, 75.035 731.577 C 70.219 721.487, 68.996 715.619, 69.015 702.701 C 69.033 690.300, 70.895 681.895, 75.615 672.913 C 87.015 651.218, 111.540 639.889, 144 641.321 C 158.312 641.953, 166.462 643.773, 176.716 648.627 C 184.917 652.508, 194.785 661.071, 198.641 667.650 C 200.043 670.043, 201.523 672, 201.930 672 C 203.220 672, 259 640.896, 258.990 640.183 C 258.967 638.498, 248.430 625.696, 242.506 620.155 C 220.885 599.929, 190.948 587.970, 154.605 585.040 C 140.522 583.904, 139.788 583.906, 123.041 585.108 M 1216 618 L 1216 636 1244.540 636 C 1270.997 636, 1273.362 635.856, 1276.956 634.023 C 1279.087 632.935, 1281.802 630.682, 1282.989 629.016 C 1285.654 625.273, 1286.690 616.622, 1285.064 611.694 C 1283.595 607.243, 1278.282 602.450, 1273.277 601.060 C 1271.077 600.449, 1258.330 600.009, 1242.750 600.006 L 1216 600 1216 618 M 662.700 614.657 C 660.548 618.884, 640 665.735, 640 666.415 C 640 666.737, 650.800 667, 664 667 C 679.103 667, 688 666.635, 688 666.014 C 688 665.153, 665.211 613.055, 664.441 612.157 C 664.280 611.968, 663.496 613.093, 662.700 614.657 M 1564 619.985 C 1525.030 623.861, 1502.626 648.250, 1504.275 685 C 1505.403 710.145, 1518.196 728.343, 1541.139 737.442 C 1551.144 741.410, 1560.830 743, 1575 743 C 1589.170 743, 1598.856 741.410, 1608.861 737.442 C 1631.865 728.319, 1644.594 710.211, 1645.725 685 C 1647.171 652.781, 1630.609 630.295, 1599.739 622.566 C 1589.192 619.925, 1574.941 618.896, 1564 619.985 M 1246.063 846.541 C 1226.550 851.011, 1214 862.698, 1214 876.398 C 1214 888.044, 1222.756 896.110, 1240.020 900.369 C 1243.606 901.254, 1254.631 902.871, 1264.520 903.963 C 1274.409 905.054, 1285.200 906.641, 1288.500 907.489 C 1299.666 910.359, 1303.042 917.820, 1296.056 924.188 C 1292.695 927.252, 1288.680 928.572, 1278 930.126 C 1259.068 932.880, 1240.047 927.665, 1228.015 916.421 L 1223.500 912.202 1216 917.626 C 1211.875 920.609, 1208.372 923.422, 1208.216 923.878 C 1208.059 924.334, 1210.877 927.462, 1214.478 930.831 C 1221.577 937.471, 1232.551 943.337, 1244 946.610 C 1253.099 949.211, 1280.593 949.249, 1289.817 946.674 C 1310.290 940.958, 1321.228 929.183, 1319.711 914.491 C 1317.912 897.062, 1303.401 889.153, 1267.500 886.033 C 1253.547 884.821, 1241.164 882.694, 1237.904 880.949 C 1235.184 879.493, 1234.070 876.096, 1235.226 872.782 C 1237.254 866.965, 1247.723 863.597, 1263.500 863.685 C 1278.973 863.771, 1291.367 867.819, 1299.977 875.599 L 1303.883 879.127 1311.946 873.477 L 1320.009 867.827 1318.058 865.347 C 1312.610 858.421, 1300.036 851.483, 1286.500 847.935 C 1275.919 845.161, 1255.204 844.447, 1246.063 846.541 M 1415 846.531 C 1405.973 848.566, 1395.272 854.072, 1390.395 859.191 C 1380.675 869.394, 1380.447 882.750, 1389.848 891.243 C 1397.593 898.241, 1407.190 901.042, 1433.520 903.992 C 1452.760 906.148, 1458.585 907.235, 1463.563 909.597 C 1472.463 913.820, 1469.258 924.845, 1458.219 927.979 C 1435.369 934.466, 1409.379 929.305, 1396.148 915.653 L 1392.796 912.195 1384.898 917.754 C 1380.554 920.812, 1377 923.641, 1377 924.042 C 1377 924.443, 1379.931 927.512, 1383.513 930.863 C 1390.575 937.470, 1401.575 943.343, 1413 946.610 C 1422.099 949.211, 1449.593 949.249, 1458.817 946.674 C 1482.270 940.126, 1493.151 925.515, 1487.404 908.285 C 1483.101 895.383, 1467.966 888.767, 1436.500 886.033 C 1421.147 884.699, 1409.481 882.545, 1406.293 880.456 C 1403.469 878.606, 1403.154 872.989, 1405.729 870.414 C 1408.771 867.372, 1415.751 864.941, 1424.218 863.975 C 1441.682 861.983, 1459.763 866.703, 1469.142 875.701 L 1472.785 879.196 1480.871 873.530 C 1488.909 867.897, 1488.948 867.850, 1487.364 865.433 C 1483.387 859.363, 1469.094 851.517, 1455.500 847.942 C 1444.951 845.167, 1424.251 844.446, 1415 846.531 M 473.241 897.250 L 473.500 947.500 483.231 947.786 L 492.963 948.072 493.231 924.786 L 493.500 901.500 523.750 901.235 L 554 900.971 554 891.985 L 554 883 523.500 883 L 493 883 493 874 L 493 865 526.500 865 L 560 865 560 856 L 560 847 516.491 847 L 472.982 847 473.241 897.250 M 627 897.500 L 627 948 637 948 L 647 948 647 897.500 L 647 847 637 847 L 627 847 627 897.500 M 707 856 L 707 865 729.500 865 L 752 865 752 906.500 L 752 948 762 948 L 772 948 772 906.500 L 772 865 794.500 865 L 817 865 817 856 L 817 847 762 847 L 707 847 707 856 M 877 897.500 L 877 948 886.988 948 L 896.975 948 897.238 911.655 L 897.500 875.310 929.810 911.655 L 962.120 948 972.560 948 L 983 948 983 897.500 L 983 847 973.012 847 L 963.025 847 962.762 882.850 L 962.500 918.700 930.644 882.850 L 898.788 847 887.894 847 L 877 847 877 897.500 M 1058 897.500 L 1058 948 1102.500 948 L 1147 948 1147 938.500 L 1147 929 1112.500 929 L 1078 929 1078 914.500 L 1078 900 1109.538 900 L 1141.075 900 1140.788 890.750 L 1140.500 881.500 1109.250 881.236 L 1078 880.972 1078 872.986 L 1078 865 1112.500 865 L 1147 865 1147 856 L 1147 847 1102.500 847 L 1058 847 1058 897.500 M 375.152 883.043 L 359.804 893.059 375.095 903.030 C 383.505 908.513, 390.637 912.996, 390.943 912.990 C 391.829 912.974, 401.500 894.661, 401.500 893 C 401.500 891.397, 391.839 873.017, 391 873.024 C 390.725 873.026, 383.593 877.535, 375.152 883.043 M 1566.218 876.244 C 1565.143 878.035, 1562.599 882.524, 1560.563 886.219 L 1556.862 892.939 1561.381 901.219 C 1568.821 914.851, 1566.350 914.618, 1583.775 903.332 C 1592.124 897.925, 1598.950 893.275, 1598.943 893 C 1598.931 892.544, 1580.839 880.669, 1571.891 875.244 L 1568.170 872.988 1566.218 876.244" stroke="none" fill="#ffdc04" fill-rule="evenodd"/><path d="M 828.250 546.743 C 832.513 546.931, 839.487 546.931, 843.750 546.743 C 848.013 546.556, 844.525 546.402, 836 546.402 C 827.475 546.402, 823.987 546.556, 828.250 546.743 M 1091.797 546.745 C 1096.361 546.930, 1103.561 546.929, 1107.797 546.742 C 1112.034 546.555, 1108.300 546.404, 1099.500 546.405 C 1090.700 546.406, 1087.234 546.559, 1091.797 546.745 M 1157.750 547.744 C 1162.287 547.929, 1169.713 547.929, 1174.250 547.744 C 1178.787 547.559, 1175.075 547.407, 1166 547.407 C 1156.925 547.407, 1153.213 547.559, 1157.750 547.744 M 1247.299 548.745 C 1252.139 548.929, 1259.789 548.928, 1264.299 548.743 C 1268.810 548.558, 1264.850 548.408, 1255.500 548.409 C 1246.150 548.410, 1242.460 548.562, 1247.299 548.745 M 1361.459 555.250 C 1361.196 555.938, 1361.101 581.475, 1361.249 612 L 1361.517 667.500 1361.759 611.323 C 1361.984 558.780, 1362.113 555.117, 1363.750 554.689 C 1365.390 554.261, 1365.388 554.225, 1363.719 554.116 C 1362.739 554.052, 1361.722 554.563, 1361.459 555.250 M 1427 673.934 L 1427 789.867 1424.250 790.284 C 1421.690 790.671, 1421.725 790.711, 1424.750 790.850 L 1428 791 1428 674.500 C 1428 610.425, 1427.775 558, 1427.500 558 C 1427.225 558, 1427 610.170, 1427 673.934 M 1229.811 600.748 C 1237.681 600.917, 1250.281 600.917, 1257.811 600.747 C 1265.340 600.578, 1258.900 600.439, 1243.500 600.440 C 1228.100 600.440, 1221.940 600.579, 1229.811 600.748 M 1970 724.800 L 1970.500 841.500 1970.754 725.554 C 1970.894 661.784, 1970.669 609.269, 1970.254 608.854 C 1969.839 608.439, 1969.725 660.615, 1970 724.800 M 877 713.386 L 877 777.890 872.250 778.265 L 867.500 778.640 872.736 778.820 L 877.971 779 878.236 714.404 C 878.381 678.877, 878.163 649.600, 877.750 649.345 C 877.337 649.090, 877 677.909, 877 713.386 M 651.750 666.747 C 658.487 666.920, 669.513 666.920, 676.250 666.747 C 682.987 666.574, 677.475 666.432, 664 666.432 C 650.525 666.432, 645.013 666.574, 651.750 666.747 M 1786 705.500 C 1786 722.458, 1786.212 736.121, 1786.472 735.861 C 1787.146 735.188, 1787.229 675.896, 1786.557 675.224 C 1786.251 674.917, 1786 688.542, 1786 705.500 M 1905.780 714.096 C 1905.626 729.549, 1905.838 742.401, 1906.250 742.655 C 1906.662 742.910, 1907 730.266, 1907 714.559 C 1907 698.852, 1906.789 686, 1906.530 686 C 1906.272 686, 1905.935 698.643, 1905.780 714.096 M 1225.302 688.746 C 1230.693 688.926, 1239.243 688.925, 1244.302 688.744 C 1249.361 688.563, 1244.950 688.416, 1234.500 688.417 C 1224.050 688.418, 1219.911 688.566, 1225.302 688.746 M 516.213 846.750 L 559.925 847.021 560.255 856.260 L 560.585 865.500 560.792 855.750 L 561 846 516.750 846.239 L 472.500 846.478 516.213 846.750 M 636.741 846.746 L 646.982 847.070 647.250 897.785 L 647.519 948.500 647.759 897.250 L 648 846 637.250 846.211 L 626.500 846.422 636.741 846.746 M 706.425 847.334 C 706.144 848.067, 706.067 852.455, 706.253 857.084 L 706.593 865.500 706.796 856.250 L 707 847 761.962 847 L 816.925 847 817.255 856.250 L 817.585 865.500 817.792 855.750 L 818 846 762.469 846 C 717.110 846, 706.843 846.244, 706.425 847.334 M 876.458 847.250 C 876.195 847.938, 876.101 871, 876.249 898.500 L 876.519 948.500 876.760 897.750 L 877 847 887.671 847 C 896.376 847, 898.726 847.323, 900.421 848.750 C 902.498 850.498, 902.498 850.498, 900.595 848.250 C 898.835 846.171, 897.862 846, 887.814 846 C 880.035 846, 876.801 846.356, 876.458 847.250 M 972.741 846.746 L 982.982 847.070 983.250 897.785 L 983.519 948.500 983.759 897.250 L 984 846 973.250 846.211 L 962.500 846.422 972.741 846.746 M 1080.318 846.749 C 1092.868 846.908, 1113.118 846.908, 1125.318 846.749 C 1137.518 846.590, 1127.250 846.460, 1102.500 846.460 C 1077.750 846.460, 1067.768 846.590, 1080.318 846.749 M 554 891.985 L 554 900.971 523.750 901.235 L 493.500 901.500 493.472 924.751 L 493.443 948.001 493.740 925.001 L 494.037 902 524.518 902 L 555 902 555 892.500 C 555 887.275, 554.775 883, 554.500 883 C 554.225 883, 554 887.043, 554 891.985 M 1078.400 914.500 C 1078.401 922.750, 1078.556 925.992, 1078.744 921.704 C 1078.932 917.417, 1078.931 910.667, 1078.742 906.704 C 1078.552 902.742, 1078.399 906.250, 1078.400 914.500" stroke="none" fill="#fcdc04" fill-rule="evenodd"/></svg>