<svg width="37" height="36" viewBox="0 0 37 36" fill="none" xmlns="http://www.w3.org/2000/svg">
<path d="M29.5627 22.0841L29.7909 13.6104L32.5858 13.6015L32.3565 22.0744L29.5627 22.0841Z" fill="black"/>
<path d="M25.3329 23.5106L25.4494 19.2728L11.4772 19.3206L11.3624 23.5561L8.56772 23.5669L8.87398 12.2689L11.6678 12.2593L11.5522 16.4959L25.5244 16.4481L25.64 12.2115L28.4338 12.2018L28.1284 23.4986L25.3338 23.5094L25.3329 23.5106Z" fill="black"/>
<path d="M32.4335 19.2494L35.2273 19.2397L35.3034 16.4158L32.5096 16.4255L32.4335 19.2494Z" fill="black"/>
<path d="M7.20908 22.1609L7.43723 13.6872L4.64341 13.6968L4.41413 22.1697L7.20908 22.1609Z" fill="black"/>
<path d="M4.49036 19.3459L1.69653 19.3556L1.77268 16.5317L4.5665 16.522L4.49036 19.3459Z" fill="black"/>
</svg>
