<svg width="17" height="21" viewBox="0 0 17 21" fill="none" xmlns="http://www.w3.org/2000/svg">
<path d="M11.4019 9.5C11.4019 10.2956 11.0858 11.0587 10.5232 11.6213C9.96063 12.1839 9.19756 12.5 8.40191 12.5C7.60627 12.5 6.8432 12.1839 6.28059 11.6213C5.71798 11.0587 5.40191 10.2956 5.40191 9.5C5.40191 8.70435 5.71798 7.94129 6.28059 7.37868C6.8432 6.81607 7.60627 6.5 8.40191 6.5C9.19756 6.5 9.96063 6.81607 10.5232 7.37868C11.0858 7.94129 11.4019 8.70435 11.4019 9.5Z" stroke="white" stroke-width="1.5" stroke-linecap="round" stroke-linejoin="round"/>
<path d="M16 8.5C16 15.642 8.5 19.75 8.5 19.75C8.5 19.75 1 15.642 1 8.5C1 6.51088 1.79018 4.60322 3.1967 3.1967C4.60322 1.79018 6.51088 1 8.5 1C10.4891 1 12.3968 1.79018 13.8033 3.1967C15.2098 4.60322 16 6.51088 16 8.5Z" stroke="white" stroke-width="1.5" stroke-linecap="round" stroke-linejoin="round"/>
</svg>
