<svg xmlns="http://www.w3.org/2000/svg" width="687" height="687" viewBox="0 0 687 687">
	<g fill="#000000" stroke="none">
		<path d="M2960 3923 c-260 -489 -478 -893 -484 -900 -8 -9 -189 93 -761 432 -412 244 -751 442 -753 440 -2 -2 245 -413 549 -914 l552 -911 83 0 c46 0 84 4 84 9 0 4 -81 206 -180 447 -99 241 -179 441 -178 446 2 4 142 -74 313 -172 170 -98 310 -178 311 -177 1 1 212 261 468 577 257 316 469 574 472 573 2 -1 212 -258 465 -570 254 -313 464 -571 467 -575 4 -4 146 74 316 172 170 99 311 178 313 176 2 -2 -79 -206 -180 -452 l-184 -449 85 -3 c46 -2 86 -2 87 0 12 13 1105 1822 1102 1824 -2 2 -342 -197 -756 -442 -414 -245 -754 -444 -756 -442 -1 2 -217 406 -480 898 -263 492 -478 896 -480 898 -1 1 -215 -397 -475 -885z"/>
	</g>
</svg>
