<svg width="16" height="14" viewBox="0 0 16 14" fill="none" xmlns="http://www.w3.org/2000/svg">
<path d="M14.75 7C14.75 6.55245 14.5722 6.12323 14.2557 5.80676C13.9393 5.49029 13.5101 5.3125 13.0625 5.3125H10.25C10.25 5.90924 10.0129 6.48153 9.59099 6.90349C9.16903 7.32545 8.59674 7.5625 8 7.5625C7.40326 7.5625 6.83097 7.32545 6.40901 6.90349C5.98705 6.48153 5.75 5.90924 5.75 5.3125H2.9375C2.48995 5.3125 2.06072 5.49029 1.74426 5.80676C1.42779 6.12323 1.25 6.55245 1.25 7M14.75 7V11.5C14.75 11.9476 14.5722 12.3768 14.2557 12.6932C13.9393 13.0097 13.5101 13.1875 13.0625 13.1875H2.9375C2.48995 13.1875 2.06072 13.0097 1.74426 12.6932C1.42779 12.3768 1.25 11.9476 1.25 11.5V7M14.75 7V4.75M1.25 7V4.75M14.75 4.75C14.75 4.30245 14.5722 3.87323 14.2557 3.55676C13.9393 3.24029 13.5101 3.0625 13.0625 3.0625H2.9375C2.48995 3.0625 2.06072 3.24029 1.74426 3.55676C1.42779 3.87323 1.25 4.30245 1.25 4.75M14.75 4.75V2.5C14.75 2.05245 14.5722 1.62323 14.2557 1.30676C13.9393 0.99029 13.5101 0.8125 13.0625 0.8125H2.9375C2.48995 0.8125 2.06072 0.99029 1.74426 1.30676C1.42779 1.62323 1.25 2.05245 1.25 2.5V4.75" stroke="black" stroke-opacity="0.7" stroke-linecap="round" stroke-linejoin="round"/>
</svg>
